<svg width="19" height="19" viewBox="0 0 19 19" fill="none" xmlns="http://www.w3.org/2000/svg">
<path d="M2.02137 12.9735L3.31196 13.1756C4.26468 13.3248 4.94507 14.1974 4.8749 15.1805L4.77981 16.5129C4.75212 16.9011 4.95891 17.2665 5.30141 17.4356L6.25597 17.9059C6.59846 18.0749 7.00744 18.0116 7.28719 17.7482L8.24634 16.8417C8.95354 16.173 10.0447 16.173 10.7527 16.8417L11.7119 17.7482C11.9916 18.0127 12.3997 18.0749 12.7431 17.9059L13.6995 17.4347C14.0411 17.2665 14.247 16.902 14.2193 16.5149L14.1241 15.1805C14.054 14.1974 14.7344 13.3248 15.6871 13.1756L16.9777 12.9735C17.3534 12.915 17.6562 12.6269 17.7411 12.2473L17.9766 11.1916C18.0616 10.8119 17.911 10.4181 17.5972 10.199L16.5198 9.44443C15.7249 8.8873 15.4821 7.79942 15.9622 6.94474L16.613 5.78696C16.8023 5.44982 16.771 5.02769 16.5337 4.72361L15.8736 3.87652C15.6363 3.57243 15.2412 3.44684 14.8775 3.56111L13.6294 3.95207C12.7071 4.24104 11.724 3.75658 11.3694 2.83961L10.8912 1.59967C10.7508 1.23704 10.4084 0.999065 10.0271 1L8.96913 1.00284C8.58786 1.00378 8.24634 1.24365 8.10787 1.60723L7.64161 2.833C7.29082 3.75564 6.30305 4.24387 5.37803 3.95301L4.07821 3.54506C3.71355 3.42984 3.31658 3.55638 3.07933 3.86236L2.42387 4.71039C2.18662 5.0173 2.158 5.44038 2.35095 5.77751L3.01655 6.93813C3.50676 7.79367 3.26673 8.89199 2.46726 9.45205L1.40284 10.1981C1.08896 10.4181 0.938493 10.8119 1.02342 11.1906L1.25883 12.2464C1.34284 12.6269 1.64563 12.915 2.02137 12.9735Z" stroke="#02CA3B" stroke-width="1.5" stroke-linecap="round" stroke-linejoin="round"/>
<path d="M11.3647 7.63433C12.3947 8.66441 12.3947 10.3351 11.3647 11.3652C10.3346 12.3951 8.66392 12.3951 7.63384 11.3652C6.60383 10.3351 6.60383 8.66441 7.63384 7.63433C8.66392 6.60431 10.3346 6.60431 11.3647 7.63433Z" stroke="#02CA3B" stroke-width="1.5" stroke-linecap="round" stroke-linejoin="round"/>
</svg>
