<svg width="41" height="40" viewBox="0 0 41 40" fill="none" xmlns="http://www.w3.org/2000/svg">
<path d="M3.4397 18.2412L16.3362 5.34473" stroke="#02CA3B" stroke-width="1.5" stroke-linecap="square"/>
<path d="M3.44012 37.0001H9.30193C9.30193 37.0001 9.30193 35.9504 9.30193 34.6553V28.7928C9.30193 27.4978 9.30193 26.448 9.30193 26.448L3.4397 26.448C3.4397 26.448 3.43989 27.4978 3.43989 28.7928V34.6553C3.43989 35.9504 3.44012 37.0001 3.44012 37.0001Z" stroke="#02CA3B" stroke-width="1.5" stroke-linecap="round"/>
<path d="M17.5092 37.0004H23.371C23.371 37.0004 23.371 35.9506 23.371 34.6556V21.7586C23.371 20.4636 23.371 19.4138 23.371 19.4138H17.5085C17.5085 19.4138 17.5089 20.4636 17.5089 21.7586V34.6556C17.5089 35.9506 17.5092 37.0004 17.5092 37.0004Z" stroke="#02CA3B" stroke-width="1.5" stroke-linecap="round"/>
<path d="M31.5774 37.0003H37.4395C37.4395 37.0003 37.4395 35.9505 37.4395 34.6555V5.34482C37.4395 4.04982 37.4395 3 37.4395 3H31.5771C31.5771 3 31.5774 4.04982 31.5774 5.34482V34.6555C31.5774 35.9505 31.5774 37.0003 31.5774 37.0003Z" stroke="#02CA3B" stroke-width="1.5" stroke-linecap="round"/>
<path d="M18.6805 11.2069V3H10.4736" stroke="#02CA3B" stroke-width="1.5" stroke-linecap="square"/>
</svg>
