<svg width="20" height="20" viewBox="0 0 20 20" fill="none" xmlns="http://www.w3.org/2000/svg">
<path d="M9.99951 13.75C13.4513 13.75 16.2495 10.9518 16.2495 7.5C16.2495 4.04822 13.4513 1.25 9.99951 1.25C6.54773 1.25 3.74951 4.04822 3.74951 7.5C3.74951 10.9518 6.54773 13.75 9.99951 13.75Z" stroke="#32FD6B" stroke-width="1.5" stroke-linecap="round" stroke-linejoin="round"/>
<path d="M9.99951 11.25C12.0706 11.25 13.7495 9.57107 13.7495 7.5C13.7495 5.42893 12.0706 3.75 9.99951 3.75C7.92844 3.75 6.24951 5.42893 6.24951 7.5C6.24951 9.57107 7.92844 11.25 9.99951 11.25Z" stroke="#32FD6B" stroke-width="1.5" stroke-linecap="round" stroke-linejoin="round"/>
<path d="M13.75 12.4995V18.7499L9.99945 16.8749L6.25 18.7499V12.5001" stroke="#32FD6B" stroke-width="1.5" stroke-linecap="round" stroke-linejoin="round"/>
</svg>
