<svg width="20" height="20" viewBox="0 0 20 20" fill="none" xmlns="http://www.w3.org/2000/svg">
<path d="M10 17.5C14.1421 17.5 17.5 14.1421 17.5 10C17.5 5.85786 14.1421 2.5 10 2.5C5.85786 2.5 2.5 5.85786 2.5 10C2.5 14.1421 5.85786 17.5 10 17.5Z" stroke="#32FD6B" stroke-width="1.5" stroke-miterlimit="10"/>
<path d="M10 10.9375C10.5178 10.9375 10.9375 10.5178 10.9375 10C10.9375 9.48223 10.5178 9.0625 10 9.0625C9.48223 9.0625 9.0625 9.48223 9.0625 10C9.0625 10.5178 9.48223 10.9375 10 10.9375Z" fill="#32FD6B"/>
<path d="M10 7.1875C10.5178 7.1875 10.9375 6.76777 10.9375 6.25C10.9375 5.73223 10.5178 5.3125 10 5.3125C9.48223 5.3125 9.0625 5.73223 9.0625 6.25C9.0625 6.76777 9.48223 7.1875 10 7.1875Z" fill="#32FD6B"/>
<path d="M10 14.6875C10.5178 14.6875 10.9375 14.2678 10.9375 13.75C10.9375 13.2322 10.5178 12.8125 10 12.8125C9.48223 12.8125 9.0625 13.2322 9.0625 13.75C9.0625 14.2678 9.48223 14.6875 10 14.6875Z" fill="#32FD6B"/>
</svg>
