<svg width="43" height="42" viewBox="0 0 43 42" fill="none" xmlns="http://www.w3.org/2000/svg">
<path d="M4.25862 1H38.7414M4.25862 1V24.4483C4.25862 25.9115 4.25862 29.9655 4.25862 29.9655C4.25862 29.9655 8.3126 29.9655 9.77586 29.9655H15.9828M4.25862 1H1.5M38.7414 1V24.4483C38.7414 25.9115 38.7414 29.9655 38.7414 29.9655C38.7414 29.9655 34.6874 29.9655 33.2241 29.9655H27.0172M38.7414 1H41.5M15.9828 29.9655L12.5345 41M15.9828 29.9655H27.0172M27.0172 29.9655L30.4655 41" stroke="#02CA3B" stroke-width="1.5" stroke-linecap="square"/>
<path d="M12.5352 21.6899L18.7421 14.7934L24.2593 21.6899L30.4662 9.27612" stroke="#02CA3B" stroke-width="1.5" stroke-linecap="square" stroke-linejoin="round"/>
</svg>
