<svg width="20" height="20" viewBox="0 0 20 20" fill="none" xmlns="http://www.w3.org/2000/svg">
<path d="M2.52137 13.4735L3.81196 13.6756C4.76468 13.8248 5.44507 14.6974 5.3749 15.6805L5.27981 17.0129C5.25212 17.4011 5.45891 17.7665 5.80141 17.9356L6.75597 18.4059C7.09846 18.5749 7.50744 18.5116 7.78719 18.2482L8.74634 17.3417C9.45354 16.673 10.5447 16.673 11.2527 17.3417L12.2119 18.2482C12.4916 18.5127 12.8997 18.5749 13.2431 18.4059L14.1995 17.9347C14.5411 17.7665 14.747 17.402 14.7193 17.0149L14.6241 15.6805C14.554 14.6974 15.2344 13.8248 16.1871 13.6756L17.4777 13.4735C17.8534 13.415 18.1562 13.1269 18.2411 12.7473L18.4766 11.6916C18.5616 11.3119 18.411 10.9181 18.0972 10.699L17.0198 9.94443C16.2249 9.3873 15.9821 8.29942 16.4622 7.44474L17.113 6.28696C17.3023 5.94982 17.271 5.52769 17.0337 5.22361L16.3736 4.37652C16.1363 4.07243 15.7412 3.94684 15.3775 4.06111L14.1294 4.45207C13.2071 4.74104 12.224 4.25658 11.8694 3.33961L11.3912 2.09967C11.2508 1.73704 10.9084 1.49906 10.5271 1.5L9.46913 1.50284C9.08786 1.50378 8.74634 1.74365 8.60787 2.10723L8.14161 3.333C7.79082 4.25564 6.80305 4.74387 5.87803 4.45301L4.57821 4.04506C4.21355 3.92984 3.81658 4.05638 3.57933 4.36236L2.92387 5.21039C2.68662 5.5173 2.658 5.94038 2.85095 6.27751L3.51655 7.43813C4.00676 8.29367 3.76673 9.39199 2.96726 9.95205L1.90284 10.6981C1.58896 10.9181 1.43849 11.3119 1.52342 11.6906L1.75883 12.7464C1.84284 13.1269 2.14563 13.415 2.52137 13.4735Z" stroke="#32FD6B" stroke-width="1.5" stroke-linecap="round" stroke-linejoin="round"/>
<path d="M11.8652 8.13457C12.8951 9.16465 12.8951 10.8353 11.8652 11.8654C10.8351 12.8954 9.16441 12.8954 8.13433 11.8654C7.10431 10.8353 7.10431 9.16465 8.13433 8.13457C9.16441 7.10456 10.8351 7.10456 11.8652 8.13457Z" stroke="#32FD6B" stroke-width="1.5" stroke-linecap="round" stroke-linejoin="round"/>
</svg>
