<svg width="72" height="48" viewBox="0 0 72 48" fill="none" xmlns="http://www.w3.org/2000/svg">
<rect x="0.5" y="0.5" width="71" height="47" rx="5.5" fill="white" stroke="#DDDDDD"/>
<path d="M45.6166 24.5748C46.6461 24.5971 47.6815 24.5294 48.7069 24.6099C49.7453 24.8033 49.9956 26.3721 49.073 26.8858C48.4436 27.2243 47.6958 27.0119 47.0133 27.0716H45.6166V24.5748ZM49.3022 21.7487C49.5309 22.5544 48.7526 23.2777 47.975 23.1668H45.6166C45.6332 22.407 45.5843 21.5824 45.6406 20.8626C46.5854 20.8891 47.5389 20.8084 48.4782 20.9048C48.8818 21.006 49.2195 21.3371 49.3022 21.7487ZM54.978 9.80084C55.0218 11.3395 54.9843 12.9594 54.9969 14.5293C54.994 20.9116 55.0031 27.2939 54.9919 33.6766C54.9505 36.0686 52.8262 38.147 50.4459 38.1947C48.0632 38.2044 45.6802 38.1962 43.2972 38.1989V28.55C45.8936 28.5367 48.4913 28.5772 51.0866 28.5298C52.2906 28.4544 53.6093 27.6616 53.6654 26.3394C53.8071 25.0115 52.5526 24.0931 51.3615 23.948C50.9036 23.9362 50.917 23.8148 51.3615 23.7619C52.4975 23.5169 53.3896 22.3435 53.0554 21.1685C52.7705 19.9325 51.4017 19.4542 50.2631 19.4565C47.9415 19.4408 45.6194 19.4543 43.2978 19.4498C43.3127 17.6484 43.2665 15.8452 43.3227 14.0452C43.5066 11.6964 45.6844 9.75943 48.0312 9.80145C50.3471 9.8011 52.6626 9.8011 54.978 9.80101V9.80084Z" fill="url(#paint0_linear_33_591)"/>
<path d="M17.0618 14.2889C17.121 11.9007 19.2544 9.83934 21.6317 9.80444C24.0055 9.79714 26.3797 9.80339 28.7535 9.80128C28.747 17.7916 28.7664 25.7828 28.7438 33.7726C28.6523 36.1318 26.5422 38.1539 24.1909 38.1956C21.8125 38.2042 19.4339 38.1968 17.0555 38.1992V28.2251C19.3657 28.7697 21.7884 29.0016 24.1452 28.6403C25.554 28.4141 27.0954 27.7237 27.5724 26.2652C27.9234 25.0175 27.7258 23.7045 27.778 22.424V19.4502H23.6993C23.6809 21.417 23.7368 23.3872 23.6697 25.3516C23.5598 26.5591 22.3616 27.3262 21.2204 27.2852C19.8052 27.3002 17.0007 26.2617 17.0007 26.2617C16.9937 22.5768 17.0418 17.962 17.0618 14.2892V14.2889Z" fill="url(#paint1_linear_33_591)"/>
<path d="M30.2746 20.6501C30.0599 20.6956 30.2315 19.9203 30.1766 19.6263C30.1912 17.7668 30.146 15.9054 30.2015 14.0472C30.3849 11.6885 32.5794 9.74672 34.9358 9.80193H41.8751C41.8686 17.7922 41.8879 25.7834 41.8654 33.7733C41.7738 36.1324 39.6636 38.1544 37.3121 38.1963C34.9337 38.2052 32.5551 38.1977 30.1765 38.2V27.2719C31.8009 28.602 34.0088 28.8091 36.0326 28.8127C37.5583 28.8121 39.0751 28.5774 40.5567 28.2263V26.2242C38.887 27.0547 36.9242 27.5822 35.0732 27.1051C33.782 26.7843 32.8447 25.5391 32.8656 24.2093C32.716 22.8265 33.5283 21.3666 34.89 20.9555C36.5807 20.4273 38.4234 20.8312 40.0082 21.518C40.3478 21.6954 40.6924 21.9154 40.5566 21.3491V19.7755C37.9061 19.1461 35.0854 18.9146 32.4225 19.5992C31.6517 19.8162 30.9007 20.1452 30.2746 20.6503V20.6501Z" fill="url(#paint2_linear_33_591)"/>
<defs>
<linearGradient id="paint0_linear_33_591" x1="43.2174" y1="23.3927" x2="54.9231" y2="23.3927" gradientUnits="userSpaceOnUse">
<stop stop-color="#58B03A"/>
<stop offset="1" stop-color="#55B330"/>
</linearGradient>
<linearGradient id="paint1_linear_33_591" x1="16.8066" y1="24.2722" x2="28.5617" y2="24.2722" gradientUnits="userSpaceOnUse">
<stop stop-color="#0F6EB6"/>
<stop offset="1" stop-color="#006DBA"/>
</linearGradient>
<linearGradient id="paint2_linear_33_591" x1="30.1593" y1="23.6689" x2="41.873" y2="23.6689" gradientUnits="userSpaceOnUse">
<stop stop-color="#DE0D3D"/>
<stop offset="1" stop-color="#E30138"/>
</linearGradient>
</defs>
</svg>
