<svg width="72" height="48" viewBox="0 0 72 48" fill="none" xmlns="http://www.w3.org/2000/svg">
<path d="M0.5 4C0.5 2.067 2.067 0.5 4 0.5H68C69.933 0.5 71.5 2.067 71.5 4V44C71.5 45.933 69.933 47.5 68 47.5H4C2.06701 47.5 0.5 45.933 0.5 44V4Z" fill="white" stroke="#DDDDDD"/>
<path fill-rule="evenodd" clip-rule="evenodd" d="M36 34.7321C33.5639 36.8325 30.4038 38.1004 26.9508 38.1004C19.246 38.1004 13 31.7876 13 24.0004C13 16.2132 19.246 9.90039 26.9508 9.90039C30.4038 9.90039 33.5639 11.1683 36 13.2687C38.4361 11.1683 41.5961 9.90039 45.0491 9.90039C52.7539 9.90039 58.9999 16.2132 58.9999 24.0004C58.9999 31.7876 52.7539 38.1004 45.0491 38.1004C41.5961 38.1004 38.4361 36.8325 36 34.7321Z" fill="#ED0006"/>
<path fill-rule="evenodd" clip-rule="evenodd" d="M36 34.7321C38.9996 32.1459 40.9017 28.2977 40.9017 24.0004C40.9017 19.7031 38.9996 15.8549 36 13.2687C38.4361 11.1683 41.5961 9.90039 45.0491 9.90039C52.754 9.90039 59 16.2132 59 24.0004C59 31.7876 52.754 38.1004 45.0491 38.1004C41.5961 38.1004 38.4361 36.8325 36 34.7321Z" fill="#F9A000"/>
<path fill-rule="evenodd" clip-rule="evenodd" d="M36.0001 34.7327C38.9997 32.1465 40.9016 28.2983 40.9016 24.0011C40.9016 19.7039 38.9997 15.8557 36.0001 13.2695C33.0006 15.8557 31.0986 19.7039 31.0986 24.0011C31.0986 28.2983 33.0006 32.1465 36.0001 34.7327Z" fill="#FF5E00"/>
</svg>
