<svg width="72" height="48" viewBox="0 0 72 48" fill="none" xmlns="http://www.w3.org/2000/svg">
<rect x="0.5" y="0.5" width="71" height="47" rx="5.5" fill="white" stroke="#DDDDDD"/>
<path d="M22.6169 10.2012H33.5992C35.1322 10.2012 36.0857 11.4541 35.7281 12.9964L30.615 35.0087C30.2542 36.5456 28.7193 37.7996 27.1852 37.7996H16.2039C14.673 37.7996 13.7174 36.5456 14.075 35.0087L19.1902 12.9964C19.5478 11.4541 21.0819 10.2012 22.6169 10.2012Z" fill="#E21836"/>
<path d="M32.6848 10.1992H45.3142C46.8469 10.1992 46.1558 11.4522 45.7952 12.9945L40.6829 35.0067C40.3242 36.5436 40.4361 37.7977 38.9001 37.7977H26.2708C24.7348 37.7977 23.7842 36.5436 24.1451 35.0067L29.2571 12.9945C29.62 11.4522 31.1509 10.1992 32.6848 10.1992Z" fill="#00447C"/>
<path d="M44.8134 10.1992H55.7957C57.3309 10.1992 58.2844 11.4522 57.9238 12.9945L52.8116 35.0067C52.4507 36.5436 50.9147 37.7977 49.3798 37.7977H38.4026C36.8666 37.7977 35.9139 36.5436 36.2737 35.0067L41.3868 12.9945C41.7444 11.4522 43.2774 10.1992 44.8134 10.1992Z" fill="#007B84"/>
<path d="M25.4845 17.2537C24.3552 17.2653 24.0216 17.2537 23.9151 17.2285C23.8741 17.4236 23.112 20.9487 23.1099 20.9517C22.9458 21.6648 22.8264 22.1732 22.4209 22.5015C22.1907 22.6923 21.9219 22.7844 21.6103 22.7844C21.1095 22.7844 20.8177 22.535 20.7687 22.0621L20.7594 21.8997C20.7594 21.8997 20.9119 20.9444 20.9119 20.9391C20.9119 20.9391 21.7118 17.7267 21.855 17.302C21.8625 17.2779 21.8646 17.2653 21.8665 17.2537C20.3096 17.2674 20.0337 17.2537 20.0147 17.2285C20.0042 17.2631 19.9657 17.4623 19.9657 17.4623L19.149 21.0829L19.0788 21.39L18.9431 22.3944C18.9431 22.6923 19.0015 22.9355 19.1176 23.1411C19.4897 23.7931 20.5511 23.8908 21.1515 23.8908C21.9251 23.8908 22.6508 23.726 23.1412 23.4251C23.9925 22.9208 24.2152 22.1324 24.4138 21.4319L24.5059 21.0725C24.5059 21.0725 25.3298 17.7361 25.4698 17.302C25.4752 17.2779 25.4773 17.2653 25.4845 17.2537ZM28.2879 19.9452C28.0893 19.9452 27.7263 19.9935 27.4003 20.1538C27.282 20.2147 27.1701 20.285 27.052 20.3551L27.1586 19.9694L27.1002 19.9044C26.4088 20.0448 26.254 20.0636 25.6154 20.1538L25.5618 20.1895C25.4877 20.806 25.4218 21.2696 25.1469 22.4815C25.0422 22.9281 24.9336 23.3791 24.8246 23.8246L24.8541 23.8813C25.5085 23.8466 25.7072 23.8466 26.276 23.856L26.322 23.8058C26.3943 23.4346 26.4037 23.3476 26.5638 22.5958C26.639 22.2394 26.7958 21.4561 26.8732 21.1772C27.0153 21.1112 27.1556 21.0463 27.2895 21.0463C27.6083 21.0463 27.5695 21.3251 27.5571 21.4363C27.5435 21.6228 27.4273 22.2321 27.3082 22.7553L27.2287 23.0929C27.1733 23.3423 27.1125 23.5847 27.0571 23.8319L27.0812 23.8813C27.7263 23.8466 27.9231 23.8466 28.474 23.856L28.5387 23.8058C28.6383 23.2261 28.6675 23.0709 28.8442 22.2267L28.933 21.8389C29.1057 21.0798 29.1924 20.6949 29.0618 20.3814C28.9237 20.03 28.5923 19.9452 28.2879 19.9452ZM31.4196 20.74C31.0767 20.806 30.858 20.85 30.6407 20.8785C30.4252 20.9131 30.215 20.9445 29.8836 20.9907L29.8574 21.0146L29.8333 21.0336C29.7988 21.2811 29.7747 21.495 29.7289 21.7465C29.6901 22.0066 29.6304 22.3021 29.5332 22.7268C29.458 23.0518 29.4192 23.1651 29.3764 23.2794C29.3346 23.3938 29.2886 23.5049 29.204 23.8246L29.2238 23.8541L29.2404 23.8812C29.5501 23.8665 29.7527 23.856 29.961 23.8541C30.169 23.8466 30.3845 23.8541 30.718 23.856L30.7472 23.8321L30.7785 23.8058C30.8267 23.5175 30.8339 23.44 30.8634 23.2993C30.8925 23.1485 30.9429 22.9396 31.0663 22.3819C31.1246 22.1199 31.1897 21.8587 31.2502 21.5914C31.3131 21.3251 31.3789 21.0629 31.4416 20.8009L31.4322 20.7692L31.4196 20.74ZM31.4269 19.6684C31.1153 19.484 30.5685 19.5425 30.2004 19.7972C29.8334 20.0469 29.7916 20.4012 30.1022 20.588C30.4084 20.7673 30.9574 20.7139 31.3223 20.457C31.6885 20.202 31.7342 19.8509 31.4269 19.6684ZM33.3113 23.939C33.9417 23.939 34.5879 23.7648 35.0743 23.2479C35.4485 22.8286 35.6201 22.2048 35.6795 21.9479C35.873 21.0965 35.7223 20.699 35.5331 20.4569C35.2456 20.0878 34.7375 19.9694 34.2105 19.9694C33.8935 19.9694 33.1386 20.0008 32.5489 20.546C32.1255 20.9392 31.9298 21.4728 31.8117 21.9844C31.6926 22.5057 31.5556 23.4441 32.4162 23.7933C32.6817 23.9076 33.0645 23.939 33.3113 23.939ZM33.262 22.0233C33.4074 21.3786 33.579 20.8375 34.0169 20.8375C34.3601 20.8375 34.385 21.2401 34.2324 21.887C34.2051 22.0306 34.0798 22.5645 33.9104 22.7918C33.7921 22.9596 33.6521 23.0613 33.4973 23.0613C33.4513 23.0613 33.1775 23.0613 33.1732 22.6536C33.171 22.4523 33.212 22.2467 33.262 22.0233ZM37.2554 23.8561L37.3046 23.8059C37.3745 23.4347 37.386 23.3475 37.5407 22.5959C37.6181 22.2394 37.7782 21.4562 37.8534 21.1773C37.9958 21.111 38.1336 21.0461 38.2718 21.0461C38.5884 21.0461 38.5499 21.325 38.5373 21.4361C38.5258 21.6229 38.4096 22.2319 38.2884 22.7551L38.2131 23.0927C38.1556 23.3424 38.093 23.5845 38.0375 23.832L38.0616 23.8813C38.7089 23.8467 38.8982 23.8467 39.4523 23.8561L39.5192 23.8059C39.6164 23.2259 39.6426 23.0707 39.8246 22.2268L39.9113 21.8387C40.0848 21.0796 40.1726 20.695 40.0441 20.3815C39.902 20.0301 39.5684 19.9453 39.2684 19.9453C39.0695 19.9453 38.7046 19.9933 38.3804 20.1539C38.2645 20.2148 38.1484 20.2848 38.0343 20.3552L38.1336 19.9695L38.0804 19.9042C37.3892 20.0449 37.2313 20.0637 36.5934 20.1539L36.5444 20.1896C36.467 20.8061 36.4041 21.2694 36.1292 22.4816C36.0246 22.9282 35.9159 23.3791 35.8072 23.8247L35.8364 23.8813C36.4919 23.8467 36.6876 23.8467 37.2554 23.8561ZM42.0109 23.8812C42.0516 23.682 42.2933 22.5016 42.2955 22.5016C42.2955 22.5016 42.5013 21.6354 42.5139 21.604C42.5139 21.604 42.5787 21.5138 42.6435 21.4781H42.7388C43.6379 21.4781 44.6532 21.4781 45.4491 20.8911C45.9906 20.4884 46.3608 19.8939 46.526 19.1713C46.5688 18.9942 46.6004 18.7835 46.6004 18.5728C46.6004 18.296 46.545 18.0222 46.3849 17.8083C45.9791 17.239 45.1709 17.2285 44.2381 17.2242C44.2351 17.2242 43.7782 17.2285 43.7782 17.2285C42.584 17.2433 42.1052 17.239 41.9084 17.2148C41.8918 17.3021 41.8605 17.4572 41.8605 17.4572C41.8605 17.4572 41.4327 19.4451 41.4327 19.4483C41.4327 19.4483 40.4091 23.6748 40.3609 23.874C41.4036 23.8613 41.831 23.8613 42.0109 23.8812ZM42.8035 20.3499C42.8035 20.3499 43.2583 18.3661 43.2562 18.3736L43.2709 18.2719L43.2773 18.1943L43.4591 18.2131C43.4591 18.2131 44.3971 18.2939 44.419 18.296C44.7892 18.4396 44.9418 18.8098 44.8353 19.2929C44.7381 19.7345 44.4525 20.1057 44.0855 20.285C43.7833 20.4369 43.4131 20.4495 43.0316 20.4495H42.7848L42.8035 20.3499ZM45.6352 22.0601C45.515 22.5738 45.3769 23.5122 46.2332 23.8467C46.5063 23.9632 46.7509 23.9978 46.9996 23.9852C47.2622 23.9709 47.5055 23.8389 47.7309 23.6488C47.7106 23.7269 47.6902 23.8051 47.6699 23.8834L47.7087 23.9336C48.3247 23.9076 48.5158 23.9076 49.1831 23.9127L49.2436 23.8665C49.3411 23.2921 49.4329 22.7343 49.6861 21.6355C49.8095 21.1091 49.9326 20.5878 50.0593 20.0636L50.0394 20.0059C49.3504 20.1339 49.1663 20.1613 48.5035 20.2555L48.4531 20.2966C48.4465 20.35 48.4395 20.4013 48.4331 20.4525C48.33 20.2856 48.1806 20.1431 47.9502 20.0542C47.6554 19.938 46.9632 20.0878 46.3681 20.631C45.95 21.0189 45.7493 21.5504 45.6352 22.0601ZM47.0823 22.0915C47.2298 21.4583 47.3993 20.9225 47.8383 20.9225C48.1159 20.9225 48.262 21.1794 48.2323 21.6175C48.2087 21.7267 48.1833 21.8419 48.1531 21.972C48.1092 22.1602 48.0615 22.3468 48.0152 22.5336C47.9681 22.6613 47.9132 22.7819 47.853 22.8621C47.74 23.0226 47.4713 23.1222 47.3166 23.1222C47.2727 23.1222 47.0018 23.1222 46.9924 22.7217C46.9902 22.5223 47.0312 22.317 47.0823 22.0915ZM54.6392 20.0008L54.5859 19.9398C53.9041 20.0784 53.7807 20.1004 53.1544 20.1852L53.1083 20.2313C53.1062 20.2389 53.1043 20.2504 53.1011 20.2609L53.099 20.2504C52.6326 21.3292 52.6463 21.0965 52.2667 21.9457C52.2646 21.9071 52.2646 21.8829 52.2624 21.8418L52.1674 20.0008L52.1077 19.9398C51.3935 20.0784 51.3767 20.1004 50.7171 20.1852L50.6657 20.2313C50.6585 20.2534 50.6585 20.2775 50.6542 20.3038L50.6585 20.3132C50.7409 20.7357 50.7211 20.6415 50.8038 21.3082C50.8424 21.6354 50.8938 21.9645 50.9323 22.2877C50.9974 22.8285 51.0338 23.0948 51.1133 23.9202C50.6678 24.6572 50.5624 24.9361 50.1335 25.583L50.1365 25.5895L49.8345 26.0683C49.8 26.1188 49.7687 26.1534 49.7248 26.1682C49.6766 26.192 49.614 26.1963 49.527 26.1963H49.3597L49.111 27.0257L49.9641 27.0405C50.4649 27.0384 50.7797 26.8035 50.9492 26.4878L51.4856 25.5661H51.477L51.5335 25.5011C51.8944 24.7222 54.6392 20.0008 54.6392 20.0008ZM45.6352 30.8937H45.2733L46.6128 26.4512H47.0571L47.1982 25.9936L47.2119 26.5025C47.1953 26.8171 47.4421 27.0959 48.0904 27.0498H48.8402L49.0982 26.1943H48.8161C48.6539 26.1943 48.5787 26.1533 48.588 26.0652L48.5744 25.5474H47.1859V25.5501C46.737 25.5595 45.3964 25.5933 45.125 25.6658C44.7965 25.7506 44.4504 26.0003 44.4504 26.0003L44.5864 25.5421H43.2876L43.017 26.4512L41.6595 30.9616H41.3961L41.1378 31.8109H43.7247L43.638 32.0941H44.9127L44.9973 31.8109H45.3549L45.6352 30.8937ZM44.5738 27.3539C44.3658 27.4116 43.9788 27.5866 43.9788 27.5866L44.323 26.4512H45.3549L45.106 27.2785C45.106 27.2785 44.7872 27.2972 44.5738 27.3539ZM44.5936 28.9759C44.5936 28.9759 44.2695 29.0167 44.0561 29.065C43.846 29.1289 43.452 29.3302 43.452 29.3302L43.8074 28.1487H44.8447L44.5936 28.9759ZM44.0154 30.9042H42.9803L43.2804 29.907H44.3123L44.0154 30.9042ZM46.5083 28.1487H48.0004L47.7859 28.8449H46.2741L46.0471 29.6062H47.37L46.3683 31.0204C46.2981 31.1243 46.2352 31.1611 46.1654 31.1903C46.0952 31.226 46.0032 31.2679 45.8966 31.2679H45.5296L45.2775 32.1016H46.2374C46.7363 32.1016 47.0311 31.874 47.2487 31.5752L47.9356 30.6326L48.0831 31.5897C48.1144 31.769 48.2429 31.874 48.3299 31.9148C48.426 31.9631 48.5253 32.046 48.6656 32.0584C48.816 32.0648 48.9247 32.0699 48.9969 32.0699H49.4686L49.7518 31.1369H49.5658C49.459 31.1369 49.2751 31.1189 49.2438 31.0854C49.2124 31.0446 49.2124 30.9818 49.1956 30.8862L49.0459 29.9269H48.4332L48.702 29.6062H50.2109L50.443 28.8449H49.0459L49.2636 28.1487H50.6563L50.9146 27.29H46.7623L46.5083 28.1487ZM33.9061 31.0981L34.2544 29.9364H35.6857L35.9472 29.0724H34.5146L34.7333 28.3573H36.1333L36.3927 27.5206H32.8897L32.6357 28.3573H33.4315L33.2193 29.0724H32.4213L32.1568 29.9511H32.9524L32.4882 31.4881C32.4256 31.6916 32.5177 31.7691 32.576 31.8636C32.6357 31.9557 32.6962 32.0166 32.8322 32.0512C32.9725 32.0826 33.0686 32.1014 33.1992 32.1014H34.8128L35.1003 31.1443L34.385 31.2428C34.2469 31.2428 33.8644 31.2261 33.9061 31.0981ZM34.0703 25.5368L33.7076 26.1942C33.63 26.3378 33.5601 26.4269 33.4972 26.468C33.4418 26.5026 33.332 26.5171 33.173 26.5171H32.9838L32.7308 27.358H33.3593C33.6616 27.358 33.8936 27.2469 34.0045 27.1914C34.1236 27.1275 34.1549 27.164 34.247 27.0749L34.4593 26.8905H36.4219L36.6824 26.0149H35.2457L35.4965 25.5368H34.0703ZM36.9678 31.115C36.9344 31.0667 36.9585 30.9816 37.0096 30.8044L37.546 29.024H39.4544C39.7325 29.02 39.9333 29.0168 40.0639 29.0074C40.2042 28.9926 40.3567 28.9424 40.523 28.8522C40.6946 28.7577 40.7824 28.6582 40.8565 28.5438C40.9392 28.4297 41.072 28.1801 41.186 27.7952L41.8603 25.5421L39.88 25.5537C39.88 25.5537 39.2702 25.6439 39.0017 25.7434C38.7308 25.8546 38.3438 26.1649 38.3438 26.1649L38.5226 25.5472H37.2992L35.5866 31.2427C35.5258 31.4639 35.4851 31.6244 35.4758 31.7208C35.4726 31.8247 35.6064 31.9275 35.6931 32.005C35.7957 32.0826 35.9472 32.07 36.0925 32.0826C36.2454 32.0941 36.4627 32.1014 36.7628 32.1014H37.7029L37.9915 31.1244L37.1499 31.2041C37.0599 31.2041 36.9949 31.1558 36.9678 31.115ZM37.8922 27.8215H39.8966L39.7692 28.222C39.7512 28.2314 39.7084 28.2021 39.5044 28.2263H37.7688L37.8922 27.8215ZM38.2937 26.4784H40.315L40.1696 26.9607C40.1696 26.9607 39.2169 26.9513 39.0644 26.9795C38.393 27.096 38.0008 27.4557 38.0008 27.4557L38.2937 26.4784ZM39.814 29.5631C39.7974 29.6229 39.7712 29.6594 39.7345 29.6868C39.6938 29.7131 39.628 29.7225 39.5298 29.7225H39.2441L39.261 29.2348H38.073L38.0248 31.6191C38.023 31.7912 38.0396 31.8908 38.1651 31.9705C38.2906 32.0701 38.6774 32.0827 39.1981 32.0827H39.9425L40.2113 31.1902L39.5632 31.2259L39.3477 31.2385C39.3183 31.2259 39.2902 31.2144 39.2589 31.183C39.2316 31.1559 39.1855 31.1725 39.193 31.0004L39.1981 30.3893L39.8777 30.3611C40.2447 30.3611 40.4016 30.2414 40.5354 30.1273C40.6631 30.018 40.7049 29.8924 40.7531 29.7225L40.8671 29.1814H39.9332L39.814 29.5631Z" fill="#FEFEFE"/>
</svg>
