<svg width="72" height="48" viewBox="0 0 72 48" fill="none" xmlns="http://www.w3.org/2000/svg">
<path d="M0.5 4C0.5 2.067 2.067 0.5 4 0.5H68C69.933 0.5 71.5 2.067 71.5 4V44C71.5 45.933 69.933 47.5 68 47.5H4C2.06701 47.5 0.5 45.933 0.5 44V4Z" fill="white" stroke="#DDDDDD"/>
<path fill-rule="evenodd" clip-rule="evenodd" d="M21.5005 32.4661H16.8272L13.3227 19.1228C13.1564 18.509 12.8032 17.9664 12.2837 17.7106C10.9872 17.0679 9.55854 16.5565 8 16.2985V15.7848H15.5284C16.5674 15.7848 17.3467 16.5565 17.4765 17.4527L19.2948 27.0776L23.9659 15.7848H28.5093L21.5005 32.4661ZM31.1069 32.4661H26.6934L30.3277 15.7848H34.7412L31.1069 32.4661ZM40.4511 20.4063C40.581 19.5079 41.3602 18.9942 42.2694 18.9942C43.698 18.8652 45.2543 19.1232 46.5531 19.7636L47.3323 16.1721C46.0336 15.6584 44.6049 15.4004 43.3084 15.4004C39.0247 15.4004 35.9076 17.711 35.9076 20.9178C35.9076 23.3574 38.1155 24.6384 39.6741 25.4101C41.3602 26.1795 42.0096 26.6932 41.8797 27.4627C41.8797 28.6169 40.581 29.1306 39.2845 29.1306C37.7259 29.1306 36.1674 28.7459 34.741 28.1032L33.9617 31.697C35.5203 32.3375 37.2064 32.5954 38.7649 32.5954C43.5681 32.7222 46.5531 30.4138 46.5531 26.949C46.5531 22.5857 40.4511 22.33 40.4511 20.4063ZM62.0003 32.4661L58.4959 15.7848H54.7317C53.9524 15.7848 53.1732 16.2985 52.9134 17.0679L46.4241 32.4661H50.9675L51.8744 30.0287H57.4569L57.9764 32.4661H62.0003ZM55.381 20.2772L56.6775 26.5641H53.0432L55.381 20.2772Z" fill="#172B85"/>
</svg>
